<svg xmlns="http://www.w3.org/2000/svg" width="1000" height="700" viewBox="0 0 1000 700" role="img" aria-labelledby="title desc">
  <title id="title">Placeholder seed starting illustration</title>
  <desc id="desc">Seed packets, small pots, and new sprouts.</desc>
  <rect width="1000" height="700" fill="#f5efe2"/>
  <rect x="116" y="170" width="270" height="330" rx="22" fill="#ded3bd"/>
  <rect x="145" y="205" width="212" height="62" rx="12" fill="#a7603d"/>
  <path d="M156 318h190M156 362h190M156 406h130" stroke="#5f432f" stroke-width="18" stroke-linecap="round"/>
  <rect x="460" y="310" width="110" height="130" rx="18" fill="#5f432f"/>
  <rect x="610" y="310" width="110" height="130" rx="18" fill="#5f432f"/>
  <rect x="760" y="310" width="110" height="130" rx="18" fill="#5f432f"/>
  <g fill="none" stroke="#6f7c53" stroke-width="12" stroke-linecap="round">
    <path d="M515 310c-13-73 16-125 88-158"/>
    <path d="M665 310c-16-76 18-131 94-166"/>
    <path d="M815 310c-13-68 14-118 83-150"/>
  </g>
  <g fill="#344c33">
    <ellipse cx="487" cy="203" rx="48" ry="22" transform="rotate(-35 487 203)"/>
    <ellipse cx="599" cy="174" rx="48" ry="22" transform="rotate(35 599 174)"/>
    <ellipse cx="635" cy="194" rx="48" ry="22" transform="rotate(-35 635 194)"/>
    <ellipse cx="758" cy="165" rx="48" ry="22" transform="rotate(35 758 165)"/>
    <ellipse cx="786" cy="202" rx="48" ry="22" transform="rotate(-35 786 202)"/>
    <ellipse cx="898" cy="178" rx="48" ry="22" transform="rotate(35 898 178)"/>
  </g>
  <text x="500" y="625" text-anchor="middle" fill="#34281d" font-family="Inter, Arial, sans-serif" font-size="28" font-weight="800" letter-spacing="0">PLACEHOLDER IMAGE</text>
</svg>
